<?xml version="1.0" standalone="no"?>
<!DOCTYPE svg PUBLIC "-//W3C//DTD SVG 20010904//EN"
 "http://www.w3.org/TR/2001/REC-SVG-20010904/DTD/svg10.dtd">
<svg version="1.0" xmlns="http://www.w3.org/2000/svg"
 width="320.000000pt" height="320.000000pt" viewBox="0 0 320.000000 320.000000"
 preserveAspectRatio="xMidYMid meet">
<metadata>
Created by potrace 1.14, written by Peter Selinger 2001-2017
</metadata>
<g transform="translate(0.000000,320.000000) scale(0.100000,-0.100000)"
fill="#000000" stroke="none">
<path d="M1537 2920 c-20 -11 -51 -39 -67 -62 -25 -33 -30 -51 -30 -95 0 -60
15 -95 57 -135 144 -137 372 44 275 217 -48 84 -155 118 -235 75z"/>
<path d="M1059 2107 c-73 -49 -105 -140 -74 -213 20 -47 57 -88 96 -104 l29
-12 0 -93 c0 -89 -1 -93 -23 -99 -37 -9 -92 -69 -106 -116 -24 -81 10 -165 84
-207 78 -44 170 -24 229 50 25 31 31 49 34 102 l4 65 72 41 71 41 46 -26 c63
-35 125 -35 189 0 l47 26 75 -43 75 -43 -5 -42 c-6 -55 27 -124 76 -162 30
-23 45 -27 103 -27 60 0 71 3 105 30 73 60 94 147 54 225 -19 38 -81 90 -107
90 -10 0 -13 25 -13 94 0 89 1 95 22 102 40 12 78 47 98 89 60 123 -24 255
-162 255 -154 0 -230 -177 -128 -294 17 -18 43 -39 60 -46 l30 -12 0 -94 c0
-69 -3 -94 -13 -94 -7 0 -28 -11 -48 -24 l-36 -24 -77 45 -77 46 6 38 c18 104
-99 213 -206 193 -92 -18 -140 -73 -148 -172 l-6 -66 -74 -42 -73 -42 -35 24
c-20 13 -42 24 -49 24 -11 0 -14 21 -14 93 l0 92 49 27 c117 64 120 240 5 305
-54 31 -139 31 -185 0z"/>
<path d="M1550 1319 c-32 -13 -78 -56 -96 -91 -18 -34 -18 -109 0 -151 41 -97
168 -134 262 -76 36 22 84 107 84 149 0 15 -12 51 -27 80 -22 42 -38 60 -72
77 -47 24 -108 29 -151 12z"/>
</g>
</svg>
