<?xml version="1.0" standalone="no"?>
<!DOCTYPE svg PUBLIC "-//W3C//DTD SVG 20010904//EN"
 "http://www.w3.org/TR/2001/REC-SVG-20010904/DTD/svg10.dtd">
<svg version="1.0" xmlns="http://www.w3.org/2000/svg"
 width="499.000000pt" height="499.000000pt" viewBox="0 0 499.000000 499.000000"
 preserveAspectRatio="xMidYMid meet">
<metadata>
Created by potrace 1.14, written by Peter Selinger 2001-2017
</metadata>
<g transform="translate(0.000000,499.000000) scale(0.100000,-0.100000)"
fill="#000000" stroke="none">
<path d="M2321 4128 c-103 -278 -123 -340 -113 -350 17 -17 28 -2 53 67 20 57
26 65 48 66 14 0 48 1 75 2 l48 2 32 -62 c20 -40 37 -63 49 -63 9 0 17 5 17
10 0 6 -34 79 -77 163 -97 193 -114 214 -132 165z m58 -111 c16 -32 26 -59 23
-61 -4 -2 -28 -4 -53 -4 -44 -1 -47 0 -42 21 3 12 9 27 13 32 4 6 11 25 15 43
8 40 8 40 44 -31z"/>
<path d="M2676 4142 c-4 -7 -10 -41 -21 -142 -4 -30 -8 -66 -10 -80 -15 -112
-16 -128 -5 -135 22 -14 34 20 45 125 7 71 17 145 20 148 3 3 83 -132 128
-218 31 -58 55 -90 68 -90 14 0 19 31 44 255 3 28 8 59 10 71 5 31 -11 52 -26
37 -7 -7 -14 -18 -14 -25 -1 -7 -8 -64 -15 -126 -7 -62 -17 -115 -21 -118 -5
-3 -9 -1 -9 5 0 10 -144 267 -162 289 -12 14 -25 16 -32 4z"/>
<path d="M2002 4111 c-10 -6 -19 -114 -21 -263 -1 -25 -21 -42 -21 -19 0 20
-143 231 -156 231 -8 0 -15 -3 -15 -7 -3 -17 -7 -93 -10 -190 -2 -55 -7 -99
-10 -97 -4 2 -40 55 -80 119 -48 73 -80 115 -91 115 -33 0 -31 -4 109 -217 41
-62 78 -113 83 -113 18 0 23 26 27 158 2 75 6 138 7 140 2 1 38 -52 81 -118
83 -129 109 -147 112 -80 0 19 2 35 2 35 6 0 9 305 3 309 -4 2 -13 1 -20 -3z"/>
<path d="M3192 4024 c-47 -19 -91 -67 -111 -120 -46 -120 46 -237 192 -243 46
-2 58 1 66 17 6 11 7 22 4 26 -3 3 0 6 7 6 7 0 11 2 8 6 -3 3 1 26 8 51 8 26
11 50 7 54 -15 13 -113 40 -123 34 -23 -14 -7 -33 36 -44 44 -11 45 -12 39
-44 -13 -59 -21 -67 -68 -63 -87 6 -147 63 -147 139 0 42 12 70 44 105 57 63
152 60 223 -7 41 -39 70 -15 32 26 -51 55 -157 83 -217 57z"/>
<path d="M1182 3800 c-19 -10 -41 -25 -51 -34 -10 -9 -21 -16 -24 -16 -17 0
-117 -74 -117 -87 0 -7 15 -37 34 -66 122 -191 147 -227 156 -227 12 0 197
115 220 136 10 10 11 17 3 25 -9 9 -37 -4 -113 -51 l-101 -63 -17 24 c-9 13
-25 36 -34 51 l-17 27 95 61 c81 51 94 63 83 76 -10 12 -15 12 -33 1 -60 -40
-157 -97 -164 -97 -4 0 -21 22 -39 49 l-32 49 100 63 c56 35 102 66 105 70 2
4 -2 11 -9 17 -8 7 -22 4 -45 -8z"/>
<path d="M3807 3787 c-18 -13 -187 -273 -187 -287 0 -5 10 -15 23 -21 12 -7
24 -15 27 -18 14 -19 161 -101 170 -96 21 13 8 27 -77 82 -49 30 -89 57 -91
58 -4 3 20 46 66 113 23 35 42 67 42 71 0 4 8 16 19 27 28 30 40 59 32 72 -5
9 -11 9 -24 -1z"/>
<path d="M2447 3557 c-37 -7 -59 -20 -91 -53 -107 -108 -79 -273 58 -335 174
-79 356 106 270 275 -49 96 -129 134 -237 113z"/>
<path d="M815 3539 c-7 -10 7 -29 69 -93 l28 -30 -73 -68 c-40 -37 -78 -68
-84 -68 -5 0 -30 23 -54 50 -24 28 -50 50 -57 50 -31 0 -9 -40 67 -120 44 -47
95 -102 114 -122 32 -38 65 -50 65 -25 0 7 -22 37 -50 67 -27 30 -50 57 -50
60 0 7 99 103 133 129 16 13 23 9 71 -42 29 -32 58 -57 63 -57 29 0 16 32 -35
85 -191 206 -193 208 -207 184z"/>
<path d="M4215 3450 c-63 -29 -164 -74 -237 -105 -37 -15 -69 -33 -72 -40 -9
-25 26 -25 80 0 30 14 60 25 67 25 7 0 35 -22 62 -48 l50 -47 -22 -64 c-21
-62 -21 -95 1 -88 10 3 38 74 106 271 25 73 29 92 18 102 -10 10 -21 9 -53 -6z
m-10 -105 c-10 -30 -21 -57 -24 -60 -4 -2 -24 12 -44 32 l-38 35 58 28 c32 15
60 26 62 24 2 -2 -5 -28 -14 -59z"/>
<path d="M1900 3244 c-56 -17 -92 -47 -121 -103 -54 -105 -11 -230 98 -281 64
-30 142 -24 201 15 41 27 42 27 77 11 19 -9 35 -22 35 -28 0 -6 3 -9 6 -5 3 3
27 -8 54 -24 41 -25 47 -33 43 -57 -11 -71 9 -128 66 -183 82 -81 223 -74 297
14 36 43 46 73 48 139 2 64 5 69 67 104 107 60 104 59 136 37 38 -27 88 -43
133 -43 47 0 139 46 152 76 6 13 14 24 18 24 8 0 31 73 35 109 1 14 -1 32 -5
40 -5 9 -14 31 -21 49 -6 18 -29 48 -51 66 -138 118 -344 21 -342 -160 l1 -62
-40 -23 c-22 -13 -61 -35 -86 -49 l-46 -26 -48 30 c-79 49 -177 41 -245 -18
-14 -12 -26 -17 -30 -11 -4 6 -27 21 -52 34 -87 47 -121 72 -114 83 13 21 4
99 -16 137 -47 93 -150 136 -250 105z"/>
<path d="M490 3222 c0 -4 -11 -21 -25 -37 -59 -69 -136 -178 -132 -188 8 -25
27 -15 62 33 25 34 41 48 49 42 6 -5 40 -31 76 -58 36 -27 70 -52 75 -56 67
-53 90 -68 101 -68 22 0 23 14 3 39 -10 13 -19 20 -19 16 0 -3 -6 0 -13 7 -8
7 -26 22 -41 33 -44 31 -140 103 -153 115 -10 8 -5 22 22 61 40 59 43 69 15
69 -11 0 -20 -4 -20 -8z"/>
<path d="M4430 3170 c-36 -27 -97 -73 -137 -102 -40 -29 -72 -58 -73 -64 0
-17 97 -142 126 -160 36 -24 92 -12 127 26 15 17 27 39 27 50 0 19 9 24 36 21
6 -1 26 12 43 28 53 49 41 109 -41 214 -16 20 -33 37 -36 37 -4 0 -36 -22 -72
-50z m121 -68 c14 -17 22 -83 12 -98 -4 -6 -18 -14 -31 -18 -22 -8 -52 16
-105 83 -23 29 -21 33 28 70 l40 30 22 -27 c13 -15 28 -33 34 -40z m-137 -80
c62 -86 63 -108 6 -145 -24 -15 -27 -15 -52 1 -15 10 -43 39 -64 66 l-37 48
29 24 c16 12 36 30 44 39 23 24 36 18 74 -33z"/>
<path d="M1361 2937 c-31 -10 -136 -97 -117 -97 5 0 3 -7 -5 -16 -19 -23 -21
-131 -2 -168 19 -39 73 -96 90 -96 7 0 13 -4 13 -10 0 -5 9 -10 20 -10 11 0
20 -3 21 -7 0 -5 1 -52 2 -105 l2 -97 -37 -17 c-138 -62 -170 -234 -62 -340
24 -24 53 -44 63 -44 10 0 22 -6 27 -12 7 -10 10 -131 5 -196 -1 -7 -16 -19
-33 -27 -58 -24 -91 -61 -117 -132 -19 -53 -12 -108 21 -168 15 -27 68 -82 68
-70 0 3 11 -1 23 -10 49 -32 163 -17 213 27 25 22 32 20 146 -48 l57 -35 -3
-45 c-13 -182 186 -290 335 -183 l29 20 67 -37 c38 -21 70 -41 73 -44 3 -4 11
-9 18 -11 9 -3 14 -27 15 -75 2 -61 7 -77 32 -110 16 -22 38 -46 49 -54 76
-56 197 -50 264 13 48 44 65 86 66 155 l1 65 84 50 c68 40 88 48 100 38 37
-25 92 -51 101 -46 5 3 11 1 14 -3 7 -12 97 3 127 20 74 42 127 144 109 207
-4 16 -5 33 -1 38 3 5 44 31 89 57 72 41 86 46 100 34 63 -50 153 -64 223 -34
47 20 104 86 117 136 25 101 -25 205 -119 244 l-36 15 0 105 c-1 99 0 106 21
112 118 35 176 184 115 296 -24 43 -113 113 -130 103 -4 -3 -8 42 -8 100 l0
106 35 15 c49 21 110 87 121 133 14 52 7 113 -16 156 -21 39 -69 85 -88 85 -7
0 -13 5 -13 11 0 5 -4 8 -9 4 -5 -3 -12 -1 -15 3 -7 12 -103 7 -137 -6 -42
-17 -91 -64 -110 -107 -48 -105 4 -239 109 -277 17 -7 32 -18 32 -25 1 -7 1
-51 1 -98 0 -47 0 -89 -1 -94 0 -5 -12 -12 -27 -16 -36 -8 -87 -54 -113 -102
-53 -100 5 -248 112 -285 31 -11 35 -35 30 -150 -4 -67 -4 -68 -40 -85 -80
-37 -120 -101 -120 -193 0 -58 -2 -65 -23 -74 -13 -6 -26 -13 -29 -17 -3 -3
-31 -20 -63 -37 l-57 -31 -47 29 c-82 52 -194 38 -258 -32 -46 -49 -59 -82
-60 -150 -1 -50 -5 -63 -20 -72 -11 -6 -23 -15 -27 -21 -4 -5 -8 -6 -8 -1 0 5
-8 3 -17 -5 -10 -8 -37 -25 -60 -37 -33 -18 -44 -20 -55 -10 -13 13 -42 27
-88 45 -31 12 -86 9 -123 -6 -16 -6 -31 -11 -34 -11 -3 0 -11 -6 -17 -14 -20
-26 -43 -21 -127 27 l-84 49 0 68 c0 60 -4 74 -30 111 -66 94 -177 118 -281
60 l-53 -31 -83 49 -82 49 -1 59 c-1 33 -8 75 -18 95 -20 42 -89 106 -121 110
-20 3 -21 9 -21 107 0 94 2 105 20 115 123 66 166 157 128 268 -19 57 -76 116
-118 122 -26 4 -30 17 -30 118 l0 100 41 19 c112 53 153 186 90 293 -47 81
-154 121 -245 93z"/>
<path d="M1881 2619 c-77 -34 -123 -105 -123 -189 0 -82 44 -150 123 -191 l37
-18 -1 -106 c0 -92 -2 -105 -17 -105 -9 0 -36 -13 -58 -30 -110 -80 -114 -246
-8 -327 116 -89 274 -45 326 92 6 17 11 53 11 82 0 59 -2 56 101 112 65 35 78
39 90 27 66 -65 206 -66 271 -2 16 16 20 16 69 -12 133 -73 127 -67 126 -127
-4 -168 160 -269 308 -192 149 78 135 306 -23 372 -26 11 -33 20 -34 42 -3
167 -3 165 22 184 13 10 29 19 35 19 23 0 83 80 98 129 41 139 -84 278 -233
256 -136 -20 -213 -172 -152 -298 21 -44 73 -88 117 -101 20 -6 22 -14 23
-109 l1 -102 -52 -30 c-29 -16 -57 -31 -63 -32 -5 -2 -46 19 -90 45 l-79 47
-1 65 c-2 111 -73 194 -178 206 -129 16 -237 -81 -234 -210 l2 -58 -83 -49
c-45 -27 -86 -49 -91 -49 -5 0 -19 9 -33 19 -13 11 -37 23 -51 26 l-27 7 0
107 0 107 36 14 c45 18 109 90 118 131 16 83 -6 167 -58 211 -61 54 -154 69
-225 37z"/>
<path d="M2455 1708 c-119 -25 -193 -155 -153 -269 29 -84 109 -141 197 -141
104 1 193 81 205 182 16 139 -113 257 -249 228z"/>
</g>
</svg>
